<?xml version="1.0" encoding="UTF-8"?>
<svg width="320px" height="388px" viewBox="0 0 320 388" version="1.1" xmlns="http://www.w3.org/2000/svg" xmlns:xlink="http://www.w3.org/1999/xlink">
    <!-- Generator: Sketch 62 (91390) - https://sketch.com -->
    <title>logo</title>
    <desc>Created with Sketch.</desc>
    <g id="Page-1" stroke="none" stroke-width="1" fill="none" fill-rule="evenodd">
        <g id="Artboard" transform="translate(-620.000000, -230.000000)" stroke="#FFFFFF" stroke-width="3">
            <g id="logo" transform="translate(622.000000, 232.000000)">
                <path d="M291.148121,199.296785 L253.514863,258.138575 C251.181496,261.785279 247.104276,264 242.721497,264 L236.2677,264 C231.881835,264 227.804615,261.785279 225.471248,258.138575 L187.837989,199.296785 C185.387337,195.446811 185.387337,190.553189 187.837989,186.703215 L225.471248,127.864459 C227.804615,124.214721 231.881835,122 236.2677,122 L242.693719,122 C247.095017,122 251.187669,124.223822 253.530295,127.885696 L291.148121,186.703215 C293.617293,190.553189 293.617293,195.446811 291.148121,199.296785 L291.148121,199.296785 Z M212.145833,283.977262 L174.528549,343.085239 C172.185957,346.765196 168.093364,349 163.695216,349 L157.290895,349 C152.892747,349 148.800154,346.765196 146.457562,343.085239 L108.840278,283.977262 C106.386574,280.108277 106.386574,275.18744 108.840278,271.321503 L147.939043,209.884208 C148.778549,208.567107 150.013117,207.60672 151.414352,207 C151.497685,207 151.577932,207.030488 151.664352,207.030488 L169.321759,207.030488 C169.408179,207.030488 169.488426,207 169.571759,207 C170.97608,207.60672 172.207562,208.567107 173.047068,209.884208 L212.145833,271.321503 C214.618056,275.18744 214.618056,280.108277 212.145833,283.977262 L212.145833,283.977262 Z M93.51535,258.135541 C91.181966,261.785279 87.104717,264 82.71882,264 L76.289668,264 C71.891425,264 67.798744,261.776178 65.4561,258.114304 L27.838003,199.296785 C25.387332,195.446811 25.387332,190.553189 27.838003,186.703215 L65.468446,127.864459 C67.804917,124.214721 71.882165,122 76.264976,122 L82.694128,122 C87.092371,122 91.185052,124.220788 93.527695,127.882662 L131.145793,186.703215 C133.618069,190.553189 133.618069,195.446811 131.145793,199.296785 L93.51535,258.135541 Z M108.840278,100.022738 L146.457562,40.914761 C148.800154,37.234804 152.892747,35 157.290895,35 L163.695216,35 C168.093364,35 172.185957,37.234804 174.528549,40.914761 L212.145833,100.022738 C214.618056,103.891723 214.618056,108.809512 212.145833,112.678497 L173.047068,174.115792 C172.207562,175.432893 170.97608,176.39328 169.571759,177 C169.488426,176.996951 169.408179,176.969512 169.321759,176.969512 L151.664352,176.969512 C151.577932,176.969512 151.497685,176.996951 151.414352,177 C150.013117,176.39328 148.778549,175.432893 147.939043,174.115792 L108.840278,112.678497 C106.386574,108.809512 106.386574,103.891723 108.840278,100.022738 L108.840278,100.022738 Z M313.339405,182.924768 L256.770079,92.822083 C254.709777,89.528591 251.105002,87.537388 247.240804,87.537388 L238.148928,87.540409 C231.708598,87.540409 225.717733,84.225767 222.290935,78.7628 L176.158865,5.284695 C174.095546,1.991203 170.490771,0 166.626573,0 L149.368902,0 C145.504704,0 141.899929,1.991203 139.839627,5.284695 L93.819169,78.608701 C90.329023,84.165336 84.235596,87.540409 77.683654,87.537388 L68.754672,87.537388 C64.890474,87.537388 61.285699,89.528591 59.225396,92.822083 L2.67417,182.921747 C-0.89139,188.596221 -0.89139,195.817731 2.67417,201.495228 L59.225396,291.594892 C61.285699,294.888384 64.890474,296.879586 68.754672,296.879586 L76.869186,296.870522 C84.084769,296.864479 90.796588,300.577966 94.636654,306.696609 L139.839627,378.715305 C141.899929,382.008797 145.504704,384 149.368902,384 L166.626573,384 C170.490771,384 174.095546,382.008797 176.158865,378.715305 L221.392003,306.663372 C225.21397,300.574945 231.892607,296.879586 239.071991,296.879586 L241.262005,296.879586 L247.240804,296.879586 C251.105002,296.879586 254.709777,294.888384 256.770079,291.594892 L313.339405,201.495228 C316.886865,195.820753 316.886865,188.599243 313.339405,182.924768 L313.339405,182.924768 Z" id="Fill-1"></path>
            </g>
        </g>
    </g>
</svg>